<mxfile host="Electron" agent="Mozilla/5.0 (Windows NT 10.0; Win64; x64) AppleWebKit/537.36 (KHTML, like Gecko) draw.io/28.1.2 Chrome/138.0.7204.243 Electron/37.4.0 Safari/537.36" version="28.1.2">
  <diagram name="Página-1" id="N5ZzlNQaYvJ7Q6i7x8UI">
    <mxGraphModel dx="786" dy="524" grid="1" gridSize="10" guides="1" tooltips="1" connect="1" arrows="1" fold="1" page="1" pageScale="1" pageWidth="827" pageHeight="1169" math="0" shadow="0">
      <root>
        <mxCell id="0" />
        <mxCell id="1" parent="0" />
        <mxCell id="goGwYkvK7lgWJZTuuvlo-1" value="Emitir relatório" style="swimlane;horizontal=0;whiteSpace=wrap;html=1;startSize=23;" vertex="1" parent="1">
          <mxGeometry x="130" y="290" width="510" height="200" as="geometry" />
        </mxCell>
        <mxCell id="goGwYkvK7lgWJZTuuvlo-2" style="edgeStyle=orthogonalEdgeStyle;rounded=0;orthogonalLoop=1;jettySize=auto;html=1;entryX=0;entryY=0.5;entryDx=0;entryDy=0;" edge="1" parent="goGwYkvK7lgWJZTuuvlo-1" source="goGwYkvK7lgWJZTuuvlo-3">
          <mxGeometry relative="1" as="geometry">
            <mxPoint x="214.0000000000001" y="45" as="targetPoint" />
          </mxGeometry>
        </mxCell>
        <mxCell id="goGwYkvK7lgWJZTuuvlo-3" value="" style="ellipse;html=1;shape=startState;" vertex="1" parent="goGwYkvK7lgWJZTuuvlo-1">
          <mxGeometry x="134" y="30" width="30" height="30" as="geometry" />
        </mxCell>
        <mxCell id="goGwYkvK7lgWJZTuuvlo-4" value="" style="edgeStyle=orthogonalEdgeStyle;rounded=0;orthogonalLoop=1;jettySize=auto;html=1;" edge="1" parent="goGwYkvK7lgWJZTuuvlo-1">
          <mxGeometry relative="1" as="geometry">
            <mxPoint x="294.0000000000001" y="45" as="sourcePoint" />
            <mxPoint x="334.0000000000001" y="45" as="targetPoint" />
          </mxGeometry>
        </mxCell>
        <mxCell id="goGwYkvK7lgWJZTuuvlo-5" value="1. Cliente acessa o aplicativo" style="rounded=1;whiteSpace=wrap;html=1;arcSize=40;" vertex="1" parent="goGwYkvK7lgWJZTuuvlo-1">
          <mxGeometry x="212" y="16" width="80" height="60" as="geometry" />
        </mxCell>
        <mxCell id="goGwYkvK7lgWJZTuuvlo-18" style="edgeStyle=orthogonalEdgeStyle;rounded=0;orthogonalLoop=1;jettySize=auto;html=1;" edge="1" parent="goGwYkvK7lgWJZTuuvlo-1" source="goGwYkvK7lgWJZTuuvlo-7">
          <mxGeometry relative="1" as="geometry">
            <mxPoint x="392" y="110" as="targetPoint" />
          </mxGeometry>
        </mxCell>
        <mxCell id="goGwYkvK7lgWJZTuuvlo-7" value="2. Cliente acessa a página de Emissão de relatórios" style="whiteSpace=wrap;html=1;rounded=1;arcSize=40;" vertex="1" parent="goGwYkvK7lgWJZTuuvlo-1">
          <mxGeometry x="332" y="16" width="120" height="60" as="geometry" />
        </mxCell>
        <mxCell id="goGwYkvK7lgWJZTuuvlo-8" style="edgeStyle=orthogonalEdgeStyle;rounded=0;orthogonalLoop=1;jettySize=auto;html=1;entryX=1;entryY=0.5;entryDx=0;entryDy=0;" edge="1" parent="goGwYkvK7lgWJZTuuvlo-1" source="goGwYkvK7lgWJZTuuvlo-9" target="goGwYkvK7lgWJZTuuvlo-10">
          <mxGeometry relative="1" as="geometry" />
        </mxCell>
        <mxCell id="goGwYkvK7lgWJZTuuvlo-9" value="3. Clinete escolhe o tipo de relatório que deseja" style="whiteSpace=wrap;html=1;rounded=1;arcSize=40;" vertex="1" parent="goGwYkvK7lgWJZTuuvlo-1">
          <mxGeometry x="320" y="111" width="117.5" height="60" as="geometry" />
        </mxCell>
        <mxCell id="goGwYkvK7lgWJZTuuvlo-19" style="edgeStyle=orthogonalEdgeStyle;rounded=0;orthogonalLoop=1;jettySize=auto;html=1;entryX=1;entryY=0.5;entryDx=0;entryDy=0;" edge="1" parent="goGwYkvK7lgWJZTuuvlo-1" source="goGwYkvK7lgWJZTuuvlo-10" target="goGwYkvK7lgWJZTuuvlo-16">
          <mxGeometry relative="1" as="geometry" />
        </mxCell>
        <mxCell id="goGwYkvK7lgWJZTuuvlo-10" value="4. Cliente define os dados que deseja no diagrama" style="whiteSpace=wrap;html=1;rounded=1;arcSize=40;" vertex="1" parent="goGwYkvK7lgWJZTuuvlo-1">
          <mxGeometry x="130" y="111" width="131" height="60" as="geometry" />
        </mxCell>
        <mxCell id="goGwYkvK7lgWJZTuuvlo-16" value="" style="ellipse;html=1;shape=endState;" vertex="1" parent="goGwYkvK7lgWJZTuuvlo-1">
          <mxGeometry x="60" y="126" width="30" height="30" as="geometry" />
        </mxCell>
      </root>
    </mxGraphModel>
  </diagram>
</mxfile>
